<?xml version="1.0" encoding="UTF-8"?>
<svg version="1.1" xmlns="http://www.w3.org/2000/svg" width="1024" height="1024">
<path d="M0 0 C0.33 0.66 0.66 1.32 1 2 C1.99966797 1.94779297 1.99966797 1.94779297 3.01953125 1.89453125 C13.55757588 1.58502225 21.95881775 3.21994387 30.125 10.17578125 C35.54602234 15.44998424 37.99556898 21.51648665 38.25726891 29.04778671 C38.27073607 30.56124097 38.2734847 32.07481583 38.26742554 33.58831787 C38.27195665 34.42774941 38.27648776 35.26718094 38.28115618 36.1320498 C38.29376831 38.9315144 38.29218187 41.73078366 38.29052734 44.53027344 C38.29651462 46.54299163 38.30332062 48.55570752 38.31088257 50.56842041 C38.32853034 56.02726038 38.33323746 61.48603763 38.33451414 66.94490337 C38.33593708 70.35837898 38.34020943 73.77183871 38.34550858 77.18531036 C38.3640054 89.10239166 38.37217969 101.01942826 38.37060547 112.93652344 C38.36940444 124.0308671 38.39050017 135.1250161 38.4220928 146.21931052 C38.44827813 155.75585967 38.4589718 165.29234533 38.45769465 174.82893014 C38.45718565 180.51954511 38.46283477 186.20998706 38.48405075 191.9005661 C38.50347084 197.25554307 38.50353169 202.61018267 38.48901749 207.96517181 C38.48693292 209.92465713 38.49160915 211.88416378 38.5037384 213.84361267 C38.57761286 226.61008107 38.5663375 238.58772066 28.99609375 248.27734375 C22.14213631 254.19240291 15.96123417 255.33020672 7.11328125 255.62109375 C6.152547 255.65834564 5.19181274 255.69559753 4.20196533 255.73397827 C-5.78880779 256.0884609 -15.77970398 256.15192529 -25.77587891 256.13037109 C-28.81808163 256.12487705 -31.8601447 256.13043022 -34.90234375 256.13671875 C-36.84635449 256.13606001 -38.79036515 256.1347831 -40.734375 256.1328125 C-41.6393573 256.13483673 -42.5443396 256.13686096 -43.47674561 256.13894653 C-44.30651917 256.13579437 -45.13629272 256.13264221 -45.99121094 256.12939453 C-46.71983337 256.12859894 -47.44845581 256.12780334 -48.19915771 256.12698364 C-50 256 -50 256 -52 255 C-51.82210937 255.72574219 -51.64421875 256.45148438 -51.4609375 257.19921875 C-50.33841709 264.01995719 -52.66581067 270.58948323 -56.51953125 276.18359375 C-61.33252421 282.08871704 -67.00814475 286.3828713 -74.68969727 287.33251953 C-88.09164619 288.2941032 -101.5085381 288.10902775 -114.9375 288.0625 C-117.47070224 288.05747477 -120.00390545 288.05291367 -122.53710938 288.04882812 C-128.69142761 288.03790404 -134.8457092 288.02124711 -141 288 C-141.1139209 288.94681641 -141.2278418 289.89363281 -141.34521484 290.86914062 C-141.50715332 292.11888672 -141.6690918 293.36863281 -141.8359375 294.65625 C-141.9911084 295.89181641 -142.1462793 297.12738281 -142.30615234 298.40039062 C-143.66885028 305.46992558 -147.23508806 310.87151015 -152.75 315.4375 C-160.58524111 320.55081893 -168.85317449 321.44445157 -178.01416016 321.37231445 C-179.06590927 321.37596512 -180.11765839 321.37961578 -181.20127869 321.38337708 C-184.6473754 321.39142507 -188.0929934 321.37792193 -191.5390625 321.36328125 C-193.94941202 321.36276203 -196.35976198 321.36328212 -198.77011108 321.36479187 C-203.80839402 321.36470241 -208.84651608 321.35432467 -213.88476562 321.33618164 C-220.33176716 321.31347125 -226.77853441 321.31295772 -233.22556496 321.31969929 C-238.19790721 321.32304548 -243.17019637 321.31639727 -248.14252853 321.30657005 C-250.51950172 321.30273085 -252.89648082 321.30156451 -255.27345657 321.3031559 C-258.59729461 321.30352808 -261.92083564 321.29086404 -265.24462891 321.2746582 C-266.21938675 321.27713562 -267.19414459 321.27961304 -268.19844055 321.28216553 C-278.05363428 321.20574763 -286.45259034 319.35957412 -293.73046875 312.328125 C-302.18133685 302.89653888 -302.15570282 293.20990716 -302.1328125 281.1328125 C-302.13376923 280.01687714 -302.13472595 278.90094177 -302.13571167 277.75119019 C-302.13638915 275.40639184 -302.13456514 273.06159157 -302.13037109 270.71679688 C-302.12498631 267.11584318 -302.13034625 263.5150125 -302.13671875 259.9140625 C-302.13605849 257.63281222 -302.1347784 255.35156202 -302.1328125 253.0703125 C-302.13483673 251.99016876 -302.13686096 250.91002502 -302.13894653 249.79714966 C-302.13579437 248.8020639 -302.13264221 247.80697815 -302.12939453 246.78173828 C-302.12859894 245.90429962 -302.12780334 245.02686096 -302.12698364 244.12283325 C-302 242 -302 242 -301 240 C-298.25390625 239.50097656 -298.25390625 239.50097656 -294.5625 239.140625 C-293.1912453 238.9971779 -291.82007336 238.85293791 -290.44897461 238.70800781 C-289.72370575 238.63408813 -288.99843689 238.56016846 -288.25119019 238.48400879 C-249.64856996 234.4713081 -212.14156065 222.0308613 -177.81835938 203.94287109 C-175.91903087 202.9580152 -174.00311763 202.01566214 -172.078125 201.08203125 C-156.90227241 193.71264908 -142.78039834 184.9692523 -128.75 175.625 C-128.15424164 175.22855286 -127.55848328 174.83210571 -126.94467163 174.42364502 C-125.22648074 173.27794718 -123.5110745 172.1282219 -121.796875 170.9765625 C-120.80010742 170.30705566 -119.80333984 169.63754883 -118.77636719 168.94775391 C-116.09112859 167.06393105 -113.55108826 165.05998131 -111 163 C-109.36803718 161.95713596 -107.72141306 160.9369376 -106.0625 159.9375 C-95.33464325 153.18399018 -85.72137893 144.85648047 -76.10546875 136.6328125 C-73.15579651 134.11661783 -70.14529582 131.68107031 -67.125 129.25 C-62.24612479 125.2788225 -57.86005874 121.0125952 -53.53515625 116.45703125 C-52.38980826 115.27184507 -51.19919632 114.13067082 -50 113 C-49.34 113 -48.68 113 -48 113 C-47.74863281 112.41605469 -47.49726562 111.83210938 -47.23828125 111.23046875 C-45.84200562 108.71541076 -44.30843297 107.2524257 -42.1875 105.3125 C-35.2787917 98.5712079 -29.72059777 90.74656101 -24 83 C-23.31679688 82.08992188 -22.63359375 81.17984375 -21.9296875 80.2421875 C-7.27806768 60.13880217 4.3447721 35.19957611 0.515625 9.78515625 C0.14897016 7.89985669 -0.24031938 6.01870499 -0.66015625 4.14453125 C-1 2 -1 2 0 0 Z " fill="#A8D850" transform="translate(647,298)"/>
<path d="M0 0 C5.81660061 -0.09944869 11.63269792 -0.1717413 17.44995117 -0.21972656 C19.4256249 -0.23974646 21.40124009 -0.26697092 23.37670898 -0.30175781 C26.2291515 -0.35070207 29.08080549 -0.37306525 31.93359375 -0.390625 C32.80584091 -0.41127014 33.67808807 -0.43191528 34.57676697 -0.45318604 C40.74927474 -0.4554056 45.67633813 0.79944932 51 4 C55.61790933 8.84880479 56.42132182 12.20174825 56.3359375 18.7421875 C53.81693554 43.17064833 31.49437819 65.58163335 14.875 82.375 C14.31844727 82.94081787 13.76189453 83.50663574 13.18847656 84.08959961 C9.24684196 88 9.24684196 88 7 88 C7 88.66 7 89.32 7 90 C5.70703125 91.33984375 5.70703125 91.33984375 3.8125 92.9375 C2.70068359 93.87916016 2.70068359 93.87916016 1.56640625 94.83984375 C0.71949219 95.55269531 -0.12742187 96.26554687 -1 97 C-1.89847656 97.78503906 -2.79695312 98.57007813 -3.72265625 99.37890625 C-15.81703288 109.89915139 -28.63310216 120.0008669 -42.33203125 128.34765625 C-44.98341592 129.98972904 -47.55291834 131.71985604 -50.12841797 133.47705078 C-58.69227207 139.30172274 -67.54103627 144.5345334 -76.56152344 149.61767578 C-78.91952134 150.95437824 -81.26105895 152.31655188 -83.6015625 153.68359375 C-112.85430552 170.54178217 -155.309288 192.23079972 -190 189 C-192.66850281 187.39933777 -192.66850281 187.39933777 -195 185 C-195.63923645 181.9379425 -195.63923645 181.9379425 -195.65942383 178.2980957 C-195.66990753 177.63231506 -195.68039124 176.96653442 -195.69119263 176.28057861 C-195.71998502 174.07850689 -195.71363693 171.87800821 -195.70703125 169.67578125 C-195.72016847 168.13036671 -195.73547886 166.58496927 -195.75285339 165.03959656 C-195.79278124 160.96075505 -195.80289219 156.88235853 -195.80688477 152.80334473 C-195.81610255 148.71445493 -195.85364498 144.62584473 -195.88867188 140.53710938 C-195.95305774 132.40243224 -195.98734836 124.26801025 -195.99701309 116.13309097 C-196.00013759 113.90174061 -196.00559328 111.67040211 -196.01107788 109.4390564 C-196.01359625 107.93747983 -196.01601033 106.43590309 -196.01831055 104.93432617 C-196.02025075 104.25629346 -196.02219095 103.57826075 -196.02418995 102.87968159 C-196.04576837 78.26128765 -196.04576837 78.26128765 -187.8125 69.1875 C-178.46150452 60.55735214 -167.17277974 60.84658993 -155.171875 60.8671875 C-153.94591614 60.86623077 -152.71995728 60.86527405 -151.45684814 60.86428833 C-148.87487741 60.86360974 -146.29290493 60.86544158 -143.7109375 60.86962891 C-139.74996138 60.87500005 -135.7890977 60.86966358 -131.828125 60.86328125 C-129.31770808 60.86394173 -126.80729124 60.86522226 -124.296875 60.8671875 C-123.1093866 60.86516327 -121.92189819 60.86313904 -120.69842529 60.86105347 C-119.60008362 60.86420563 -118.50174194 60.86735779 -117.37011719 60.87060547 C-116.40305847 60.87140106 -115.43599976 60.87219666 -114.43963623 60.87301636 C-112 61 -112 61 -109 62 C-108.98582031 61.16597656 -108.97164063 60.33195312 -108.95703125 59.47265625 C-108.52880173 49.36875427 -106.50340395 42.97017055 -99 36.0625 C-89.27868053 27.77193924 -74.52359882 29.83354789 -62.45727539 29.86962891 C-60.27678786 29.87508943 -58.09649774 29.86959375 -55.91601562 29.86328125 C-54.52343705 29.86394048 -53.13085859 29.8652184 -51.73828125 29.8671875 C-49.86716675 29.86887939 -49.86716675 29.86887939 -47.95825195 29.87060547 C-45 30 -45 30 -43 31 C-42.67 30.34 -42.34 29.68 -42 29 C-41.34644531 29.15339844 -40.69289063 29.30679687 -40.01953125 29.46484375 C-36.24507841 30.13379594 -32.51094004 30.35407297 -28.6875 30.5625 C-27.94693359 30.60568359 -27.20636719 30.64886719 -26.44335938 30.69335938 C-24.62908536 30.79870432 -22.8145645 30.89978316 -21 31 C-21.02320313 30.01257813 -21.04640625 29.02515625 -21.0703125 28.0078125 C-21.08835937 26.72648437 -21.10640625 25.44515625 -21.125 24.125 C-21.14820313 22.84882813 -21.17140625 21.57265625 -21.1953125 20.2578125 C-21 17 -21 17 -19 15 C-16.87695312 14.49755859 -16.87695312 14.49755859 -14.28125 14.1484375 C-13.34925781 14.01953125 -12.41726563 13.890625 -11.45703125 13.7578125 C-10.48121094 13.63148438 -9.50539063 13.50515625 -8.5 13.375 C-7.52417969 13.2409375 -6.54835938 13.106875 -5.54296875 12.96875 C1.6040338 12 1.6040338 12 4 12 C3.566875 11.07767578 3.566875 11.07767578 3.125 10.13671875 C2.75375 9.32847656 2.3825 8.52023437 2 7.6875 C1.62875 6.88699219 1.2575 6.08648437 0.875 5.26171875 C0 3 0 3 0 0 Z " fill="#F1AB5B" transform="translate(541,300)"/>
<path d="M0 0 C0.67155349 2.26949102 1.3373963 4.5403961 2 6.8125 C2.37125 8.07707031 2.7425 9.34164063 3.125 10.64453125 C4 14 4 14 4 17 C4.81339844 16.68546875 5.62679687 16.3709375 6.46484375 16.046875 C19.19148611 11.29406818 32.34326085 7.46098698 46 7 C47.11246094 6.9484375 48.22492188 6.896875 49.37109375 6.84375 C67.06900208 6.39427931 85.3901699 9.40071149 100 20 C100 20.66 100 21.32 100 22 C100.598125 22.26554687 101.19625 22.53109375 101.8125 22.8046875 C108.90922005 26.6825381 112.60959693 34.87880529 115.0859375 42.21875 C120.17008493 63.25060775 111.39232384 84.15946914 100.68359375 101.9453125 C94.7608831 111.33155344 87.6314327 119.79125767 80.47070312 128.24584961 C79.20830472 129.7515489 77.97954854 131.28534217 76.7578125 132.82421875 C75 135 75 135 72.25 137.6875 C69.76754835 139.70116241 69.76754835 139.70116241 70 142 C68.34634594 143.02137457 66.67623498 144.01612294 65 145 C62.06594786 147.32279127 59.31029609 149.68970391 56.6640625 152.3359375 C38.92245019 170.07754981 18.56928933 184.74899044 -2 199 C-2.60070312 199.41958984 -3.20140625 199.83917969 -3.8203125 200.27148438 C-51.31488433 233.33665154 -126.64341702 276.06490966 -187.4375 265.31640625 C-198.0249768 263.07558559 -207.60605404 259.35163871 -213.81640625 250.0625 C-218.12297331 242.5579871 -219.32542463 235.59374122 -217.30859375 227.08203125 C-212.52473138 211.60953915 -202.78872572 197.92438106 -192 186 C-191 188 -191 188 -191.9609375 190.90625 C-192.66089844 192.68515625 -192.66089844 192.68515625 -193.375 194.5 C-196.50359847 202.89199267 -198.4878664 210.33153189 -195.14453125 218.95703125 C-192.55895219 223.57224574 -188.77007285 226.22559313 -184 228.3125 C-137.62602471 238.93986934 -80.05332839 204.64324725 -41.98144531 181.13623047 C-36.70452133 177.93574991 -36.70452133 177.93574991 -32 174 C-30.53609176 173.03884812 -29.05339851 172.10622841 -27.5625 171.1875 C-14.61881579 163.00627516 -2.04547806 154.53410067 9.43212891 144.37353516 C12.79958561 141.42347109 16.25451162 138.57413244 19.68896484 135.70263672 C21.97779716 133.77377994 24.16116926 131.83378544 26.24609375 129.68359375 C28 128 28 128 30 128 C30 127.34 30 126.68 30 126 C31.36328125 124.6953125 31.36328125 124.6953125 33.3125 123.125 C43.56421448 114.37133535 51.90173746 103.71049849 60 93 C60.63679688 92.17113281 61.27359375 91.34226562 61.9296875 90.48828125 C71.35829267 77.69231709 80.80982549 61.94753912 78.56640625 45.53515625 C77.14120094 39.15613386 74.33447031 34.44838798 69.19140625 30.3828125 C52.63800354 19.93734983 32.38449479 21.57127023 14.04638672 25.5769043 C12.02742154 26.03613194 10.01308571 26.51564855 8 27 C8.433125 28.35544922 8.433125 28.35544922 8.875 29.73828125 C9.24625 30.91777344 9.6175 32.09726562 10 33.3125 C10.37125 34.48425781 10.7425 35.65601563 11.125 36.86328125 C12 40 12 40 12 43 C-4.3666991 40.8671967 -20.7162512 38.70712197 -37 36 C-35.85504063 32.56512188 -34.31246394 31.51961418 -31.546875 29.3203125 C-29.36983178 27.46212914 -27.74950836 25.25743014 -26 23 C-23.28509102 20.13833918 -20.46039445 17.52553788 -17.4375 15 C-14.55667164 12.58260925 -12.34035017 9.94710763 -10 7 C-9.34 7 -8.68 7 -8 7 C-8 6.34 -8 5.68 -8 5 C-2.52380952 0 -2.52380952 0 0 0 Z " fill="#A33EAA" transform="translate(525,265)"/>
<path d="M0 0 C0.22460232 14.42998717 0.42516103 28.86013935 0.59840012 43.29083824 C0.67926883 49.99211461 0.76775065 56.69312495 0.87451172 63.39404297 C0.9768261 69.86483645 1.05896842 76.33560466 1.12732697 82.8068428 C1.1568699 85.27157822 1.19359249 87.73623871 1.2377243 90.20075607 C1.29845452 93.66174211 1.33328912 97.12211837 1.36230469 100.58349609 C1.38603653 101.59482605 1.40976837 102.60615601 1.43421936 103.64813232 C1.45947533 111.93078339 -0.624205 118.40236758 -5.1875 125.3125 C-13.73481925 133.47993839 -23.26375647 135.30585221 -34.67358398 135.25878906 C-35.72489502 135.2622937 -36.77620605 135.26579834 -37.859375 135.26940918 C-41.3216825 135.27818462 -44.7837843 135.2723916 -48.24609375 135.265625 C-50.6607314 135.26697295 -53.07536878 135.26891457 -55.49000549 135.27142334 C-60.54617908 135.27436902 -65.60228191 135.27009513 -70.65844727 135.26074219 C-77.12906504 135.24935419 -83.59951677 135.25590663 -90.07012844 135.26788712 C-95.05533593 135.27512588 -100.04050428 135.2728084 -105.02571297 135.26763153 C-107.41106244 135.2663003 -109.79641551 135.26792425 -112.18176079 135.27259064 C-115.52027628 135.27768827 -118.85852572 135.26989972 -122.19702148 135.25878906 C-123.17649246 135.26283752 -124.15596344 135.26688599 -125.16511536 135.27105713 C-135.03585983 135.2104187 -143.4405094 133.37124599 -150.73046875 126.328125 C-159.18133685 116.89653888 -159.15570282 107.20990716 -159.1328125 95.1328125 C-159.13376923 94.01687714 -159.13472595 92.90094177 -159.13571167 91.75119019 C-159.13638915 89.40639184 -159.13456514 87.06159157 -159.13037109 84.71679688 C-159.12498631 81.11584318 -159.13034625 77.5150125 -159.13671875 73.9140625 C-159.13605849 71.63281222 -159.1347784 69.35156202 -159.1328125 67.0703125 C-159.13483673 65.99016876 -159.13686096 64.91002502 -159.13894653 63.79714966 C-159.13579437 62.8020639 -159.13264221 61.80697815 -159.12939453 60.78173828 C-159.12859894 59.90429962 -159.12780334 59.02686096 -159.12698364 58.12283325 C-159 56 -159 56 -158 54 C-155.25390625 53.50097656 -155.25390625 53.50097656 -151.5625 53.140625 C-150.1912453 52.9971779 -148.82007336 52.85293791 -147.44897461 52.70800781 C-146.36107132 52.5971283 -146.36107132 52.5971283 -145.25119019 52.48400879 C-106.65242178 48.47170849 -69.14689347 36.03393977 -34.82714844 17.94726562 C-32.90161404 16.94899285 -30.95908071 15.99380014 -29.0078125 15.046875 C-21.33143185 11.31214614 -13.93699022 7.32158984 -6.69506836 2.79321289 C-2.1959542 0 -2.1959542 0 0 0 Z " fill="#F1AB5B" transform="translate(504,484)"/>
<path d="M0 0 C0.17760936 18.34169319 0.34324784 36.683454 0.49477577 55.02538109 C0.5654152 63.54253567 0.6399186 72.05962322 0.72363281 80.57666016 C0.79661854 88.00319716 0.8622378 95.42975717 0.91914403 102.85643542 C0.94950764 106.78599039 0.9834696 110.7154375 1.02626419 114.64487839 C1.06649756 118.34985841 1.096817 122.05479238 1.11981392 125.75991821 C1.13469577 127.75477409 1.15983763 129.74954534 1.18537903 131.74429321 C1.2390228 143.18886899 0.54730009 153.1089276 -7.63671875 161.72265625 C-20.86995564 173.82586392 -42.41854352 170.15915645 -59.09301758 170.13037109 C-62.84916092 170.12494706 -66.60518811 170.1303768 -70.36132812 170.13671875 C-72.7473961 170.13605905 -75.133464 170.13478013 -77.51953125 170.1328125 C-78.64333694 170.13483673 -79.76714264 170.13686096 -80.92500305 170.13894653 C-81.95755722 170.13579437 -82.99011139 170.13264221 -84.05395508 170.12939453 C-84.96357498 170.12859894 -85.87319489 170.12780334 -86.81037903 170.12698364 C-89 170 -89 170 -91 169 C-91.62894107 156.01456168 -92.10689498 143.03280241 -92.39892864 130.03517342 C-92.53920539 123.99694038 -92.72884255 117.96919965 -93.03686523 111.93701172 C-95.04239968 71.64594879 -95.04239968 71.64594879 -88.34332275 63.04821777 C-82.46082256 56.8690127 -74.94585307 53.18691405 -67.0193634 50.27926636 C-63.81940978 48.92348619 -61.62225117 47.25672181 -59 45 C-57.36803718 43.95713596 -55.72141306 42.9369376 -54.0625 41.9375 C-43.33464325 35.18399018 -33.72137893 26.85648047 -24.10546875 18.6328125 C-21.15579651 16.11661783 -18.14529582 13.68107031 -15.125 11.25 C-11.27089358 8.13188184 -7.76771708 4.88640808 -4.4375 1.21484375 C-3 0 -3 0 0 0 Z " fill="#6DC9C2" transform="translate(595,416)"/>
<path d="M0 0 C5.81660061 -0.09944869 11.63269792 -0.1717413 17.44995117 -0.21972656 C19.4256249 -0.23974646 21.40124009 -0.26697092 23.37670898 -0.30175781 C26.2291515 -0.35070207 29.08080549 -0.37306525 31.93359375 -0.390625 C32.80584091 -0.41127014 33.67808807 -0.43191528 34.57676697 -0.45318604 C40.74927474 -0.4554056 45.67633813 0.79944932 51 4 C55.61790933 8.84880479 56.42132182 12.20174825 56.3359375 18.7421875 C53.81693554 43.17064833 31.49437819 65.58163335 14.875 82.375 C14.31844727 82.94081787 13.76189453 83.50663574 13.18847656 84.08959961 C9.24684196 88 9.24684196 88 7 88 C7 88.66 7 89.32 7 90 C5.70703125 91.33984375 5.70703125 91.33984375 3.8125 92.9375 C2.70068359 93.87916016 2.70068359 93.87916016 1.56640625 94.83984375 C0.71949219 95.55269531 -0.12742187 96.26554687 -1 97 C-1.89847656 97.78503906 -2.79695312 98.57007813 -3.72265625 99.37890625 C-10.47347658 105.25000996 -17.47996762 110.74122964 -24.625 116.125 C-25.5025293 116.78886719 -26.38005859 117.45273437 -27.28417969 118.13671875 C-28.11079102 118.75417969 -28.93740234 119.37164062 -29.7890625 120.0078125 C-30.52850098 120.56098145 -31.26793945 121.11415039 -32.02978516 121.68408203 C-34 123 -34 123 -37 124 C-37.00546844 123.1810022 -37.00546844 123.1810022 -37.01104736 122.34545898 C-37.05303651 116.63434114 -37.12249548 110.9240147 -37.20751953 105.21337891 C-37.23564943 103.08552995 -37.25690346 100.95757806 -37.27099609 98.82958984 C-37.29253608 95.7608602 -37.33924371 92.69335789 -37.390625 89.625 C-37.39185364 88.68197021 -37.39308228 87.73894043 -37.39434814 86.76733398 C-37.52708875 80.70655249 -38.56109257 76.06878482 -42 71 C-44.11272352 68.90018083 -44.11272352 68.90018083 -46.5 67.5625 C-47.2528125 67.08941406 -48.005625 66.61632812 -48.78125 66.12890625 C-52.61216262 64.17972712 -56.03448888 63.86807672 -60.3034668 63.81054688 C-61.36103683 63.79382935 -62.41860687 63.77711182 -63.50822449 63.7598877 C-64.64375259 63.74631226 -65.7792807 63.73273682 -66.94921875 63.71875 C-68.70175713 63.69113586 -68.70175713 63.69113586 -70.48970032 63.66296387 C-75.49312113 63.58421164 -80.49667491 63.5163179 -85.50024414 63.44775391 C-89.14997357 63.3961927 -92.79958122 63.33889768 -96.44921875 63.28125 C-97.59081955 63.26767456 -98.73242035 63.25409912 -99.90861511 63.2401123 C-101.48078545 63.21503601 -101.48078545 63.21503601 -103.0847168 63.18945312 C-104.01197067 63.17692505 -104.93922455 63.16439697 -105.89457703 63.15148926 C-108 63 -108 63 -109 62 C-109.19929904 52.43364608 -107.74156671 44.9906187 -101.06640625 37.96484375 C-90.353637 28.10261573 -76.17248453 29.82861736 -62.45727539 29.86962891 C-60.27678786 29.87508943 -58.09649774 29.86959375 -55.91601562 29.86328125 C-54.52343705 29.86394048 -53.13085859 29.8652184 -51.73828125 29.8671875 C-50.49087158 29.86831543 -49.24346191 29.86944336 -47.95825195 29.87060547 C-45 30 -45 30 -43 31 C-42.67 30.34 -42.34 29.68 -42 29 C-41.34644531 29.15339844 -40.69289063 29.30679687 -40.01953125 29.46484375 C-36.24507841 30.13379594 -32.51094004 30.35407297 -28.6875 30.5625 C-27.94693359 30.60568359 -27.20636719 30.64886719 -26.44335938 30.69335938 C-24.62908536 30.79870432 -22.8145645 30.89978316 -21 31 C-21.02320313 30.01257813 -21.04640625 29.02515625 -21.0703125 28.0078125 C-21.08835937 26.72648437 -21.10640625 25.44515625 -21.125 24.125 C-21.14820313 22.84882813 -21.17140625 21.57265625 -21.1953125 20.2578125 C-21 17 -21 17 -19 15 C-16.87695312 14.49755859 -16.87695312 14.49755859 -14.28125 14.1484375 C-12.88326172 13.95507812 -12.88326172 13.95507812 -11.45703125 13.7578125 C-9.99330078 13.56832031 -9.99330078 13.56832031 -8.5 13.375 C-7.52417969 13.2409375 -6.54835938 13.106875 -5.54296875 12.96875 C1.6040338 12 1.6040338 12 4 12 C3.71125 11.38511719 3.4225 10.77023437 3.125 10.13671875 C2.75375 9.32847656 2.3825 8.52023437 2 7.6875 C1.62875 6.88699219 1.2575 6.08648437 0.875 5.26171875 C0 3 0 3 0 0 Z " fill="#6DC8C1" transform="translate(541,300)"/>
<path d="M0 0 C5.81660061 -0.09944869 11.63269792 -0.1717413 17.44995117 -0.21972656 C19.4256249 -0.23974646 21.40124009 -0.26697092 23.37670898 -0.30175781 C26.2291515 -0.35070207 29.08080549 -0.37306525 31.93359375 -0.390625 C32.80584091 -0.41127014 33.67808807 -0.43191528 34.57676697 -0.45318604 C40.74927474 -0.4554056 45.67633813 0.79944932 51 4 C55.61475117 8.84548873 56.40774117 12.19056743 56.34765625 18.72265625 C55.36766715 27.96098049 51.27293579 36.46723458 46 44 C45.29875 43.278125 44.5975 42.55625 43.875 41.8125 C38.59448443 36.54698589 34.55873162 32.92377939 26.79418945 32.79467773 C25.73331619 32.77473251 24.67244293 32.75478729 23.579422 32.73423767 C22.43559555 32.71752518 21.2917691 32.70081268 20.11328125 32.68359375 C18.35506294 32.6524221 18.35506294 32.6524221 16.56132507 32.62062073 C12.81177714 32.55516182 9.06215837 32.49625704 5.3125 32.4375 C2.77277909 32.39431132 0.23306538 32.35069692 -2.30664062 32.30664062 C-8.53768522 32.19948414 -14.76880051 32.0977108 -21 32 C-21.05383848 29.54137599 -21.09359038 27.0839245 -21.125 24.625 C-21.14175781 23.92632812 -21.15851562 23.22765625 -21.17578125 22.5078125 C-21.19344267 20.67102514 -21.10303261 18.83398037 -21 17 C-18.60201113 14.60201113 -17.579378 14.59203448 -14.28125 14.1484375 C-12.88326172 13.95507812 -12.88326172 13.95507812 -11.45703125 13.7578125 C-10.48121094 13.63148438 -9.50539063 13.50515625 -8.5 13.375 C-7.52417969 13.2409375 -6.54835938 13.106875 -5.54296875 12.96875 C1.6040338 12 1.6040338 12 4 12 C3.71125 11.38511719 3.4225 10.77023437 3.125 10.13671875 C2.75375 9.32847656 2.3825 8.52023437 2 7.6875 C1.443125 6.48673828 1.443125 6.48673828 0.875 5.26171875 C0 3 0 3 0 0 Z " fill="#A7D74F" transform="translate(541,300)"/>
<path d="M0 0 C4.51656908 -0.07490483 9.03279623 -0.12895323 13.54980469 -0.16479492 C15.08209543 -0.17975744 16.61434429 -0.20013497 18.14648438 -0.22631836 C31.57220319 -0.44978822 41.86323039 0.40330419 52 10 C57.17576303 15.85678448 59.06605301 23.64050151 58.94921875 31.3515625 C57.85743911 40.76954042 54.52758408 47.4150455 47.125 53.375 C35.30343341 61.3517954 15.21658191 62.12376533 1.31542969 59.49169922 C0.55133789 59.32943848 -0.21275391 59.16717773 -1 59 C-1.0231666 51.75032602 -1.04093714 44.50066003 -1.05181217 37.25095654 C-1.05703154 33.8846576 -1.06411203 30.51838398 -1.07543945 27.15209961 C-1.08753899 23.28238245 -1.09323604 19.41270134 -1.09765625 15.54296875 C-1.10281754 14.33352097 -1.10797882 13.12407318 -1.11329651 11.87797546 C-1.11337204 10.75703995 -1.11344757 9.63610443 -1.11352539 8.48120117 C-1.115746 7.49302902 -1.11796661 6.50485687 -1.12025452 5.48674011 C-1 3 -1 3 0 0 Z M13 13 C12.89917236 15.43660446 12.86027397 17.84424701 12.8671875 20.28125 C12.86623077 21.00993286 12.86527405 21.73861572 12.86428833 22.48937988 C12.86360665 24.0327971 12.86546012 25.57621717 12.86962891 27.11962891 C12.87497738 29.489974 12.86968358 31.86012959 12.86328125 34.23046875 C12.86394203 35.72656292 12.8652232 37.22265697 12.8671875 38.71875 C12.86516327 39.43228638 12.86313904 40.14582275 12.86105347 40.88098145 C12.58351349 44.22486429 12.58351349 44.22486429 14 47 C27.19890689 48.02097363 27.19890689 48.02097363 39 43 C43.60716354 38.15657167 44.34595453 34.12074051 44.2890625 27.64453125 C43.84795014 23.6089493 42.39532705 20.26853993 40 17 C34.66331067 13.44220712 18.63604316 7.36395684 13 13 Z " fill="#090908" transform="translate(409,684)"/>
<path d="M0 0 C4.23173639 -0.07497625 8.46310588 -0.12898541 12.6953125 -0.16479492 C14.1306025 -0.17974586 15.56584791 -0.20011424 17.00097656 -0.22631836 C27.76865678 -0.41779384 38.31937101 -0.54111556 46.59765625 7.328125 C50.06166006 11.45791228 51.78686878 16.67171943 52 22 C50.83642256 27.41400079 49.03396537 32.08468067 45 36 C43.35021081 36.70740219 41.68461463 37.38008406 40 38 C41.07811106 39.89880796 42.16273319 41.79391978 43.25 43.6875 C43.85328125 44.74324219 44.4565625 45.79898438 45.078125 46.88671875 C46.92865232 50.0300752 46.92865232 50.0300752 49.234375 52.76953125 C51 55 51 55 51 57 C51.99 57 52.98 57 54 57 C53.67 57.99 53.34 58.98 53 60 C47.39 60 41.78 60 36 60 C35.2575 58.47375 34.515 56.9475 33.75 55.375 C30.70365892 48.1711878 30.70365892 48.1711878 25.17578125 43.3828125 C22.86949429 42.97703849 20.5794246 42.67729371 18.25 42.4375 C17.45078125 42.35371094 16.6515625 42.26992188 15.828125 42.18359375 C15.22484375 42.12300781 14.6215625 42.06242188 14 42 C14.01160156 43.21558594 14.02320313 44.43117188 14.03515625 45.68359375 C14.04453278 47.26822764 14.05363313 48.85286318 14.0625 50.4375 C14.07087891 51.23994141 14.07925781 52.04238281 14.08789062 52.86914062 C14.0965143 54.91295221 14.0522815 56.95683902 14 59 C12.19253866 60.80746134 9.49554219 60.17303483 7.0625 60.1875 C5.98097656 60.20167969 4.89945313 60.21585938 3.78515625 60.23046875 C1 60 1 60 -1 58 C-1.20254517 55.55758667 -1.20254517 55.55758667 -1.13525391 52.44873047 C-1.11508209 51.28767792 -1.09491028 50.12662537 -1.0741272 48.9303894 C-1.04193085 47.67203278 -1.0097345 46.41367615 -0.9765625 45.1171875 C-0.95153656 43.83264679 -0.92651062 42.54810608 -0.90072632 41.22463989 C-0.8340514 37.80821483 -0.75516452 34.39217599 -0.67376709 30.97607422 C-0.59286989 27.49071079 -0.52347564 24.00512068 -0.453125 20.51953125 C-0.31336702 13.67942075 -0.16071187 6.83964935 0 0 Z M14 12 C14 17.94 14 23.88 14 30 C18.08375 30.061875 18.08375 30.061875 22.25 30.125 C23.10110352 30.14320801 23.95220703 30.16141602 24.82910156 30.18017578 C30.22115696 30.28157076 30.22115696 30.28157076 35 28 C37.48984886 23.85025191 36.90761769 20.62885021 36 16 C35.01 16 34.02 16 33 16 C32.67 15.01 32.34 14.02 32 13 C28.37918537 11.79306179 25.0749281 11.89217921 21.3125 11.9375 C18.899375 11.958125 16.48625 11.97875 14 12 Z " fill="#0B0B0B" transform="translate(553,684)"/>
<path d="M0 0 C4.41077344 -0.07471341 8.82120184 -0.12886513 13.23242188 -0.16479492 C14.72988307 -0.17978888 16.22730105 -0.20019105 17.72460938 -0.22631836 C33.04364978 -0.48674205 33.04364978 -0.48674205 40 3 C41.0725 3.53625 42.145 4.0725 43.25 4.625 C47.76399569 8.52345082 49.52843309 12.89735417 50.41796875 18.75 C50.76165973 25.43804067 49.37406834 29.91561287 45 35 C41.71875 38 41.71875 38 39 38 C44.25194166 49.50951882 44.25194166 49.50951882 53 58 C52.505 58.99 52.505 58.99 52 60 C50.29203442 60.05470352 48.58354375 60.09310718 46.875 60.125 C45.44800781 60.15980469 45.44800781 60.15980469 43.9921875 60.1953125 C40.48070369 59.96610337 38.16462116 59.58864827 35 58 C33.13733337 55.62591183 31.76318944 53.01447425 30.3125 50.375 C27.19615208 44.92791221 27.19615208 44.92791221 21.91015625 42.01171875 C18.54455483 41.98079751 18.54455483 41.98079751 14 43 C14 48.28 14 53.56 14 59 C9.07681619 59.70331197 4.89696872 60.28805698 0 60 C-0.66 59.34 -1.32 58.68 -2 58 C-1.505 57.505 -1.505 57.505 -1 57 C-0.91170295 55.32769659 -0.89309345 53.65165805 -0.90234375 51.97705078 C-0.90729858 50.37000778 -0.90729858 50.37000778 -0.91235352 48.73049927 C-0.92065186 47.56388763 -0.9289502 46.397276 -0.9375 45.1953125 C-0.94128662 44.00525604 -0.94507324 42.81519958 -0.94897461 41.58908081 C-0.96539962 36.47357081 -0.99348612 31.35813903 -1.02050781 26.24267578 C-1.03853768 22.51855841 -1.05066924 18.79445388 -1.0625 15.0703125 C-1.07494751 13.32646774 -1.07494751 13.32646774 -1.08764648 11.5473938 C-1.09094971 10.46972748 -1.09425293 9.39206116 -1.09765625 8.28173828 C-1.10289307 7.33211212 -1.10812988 6.38248596 -1.11352539 5.40408325 C-1 3 -1 3 0 0 Z M13 12 C13 17.94 13 23.88 13 30 C17.08375 30.061875 17.08375 30.061875 21.25 30.125 C22.10110352 30.14320801 22.95220703 30.16141602 23.82910156 30.18017578 C29.20889323 30.26228792 29.20889323 30.26228792 34 28 C36.48729276 24.92049468 36.11462592 21.83401466 35.875 18 C34.40565006 14.64148586 32.20721363 13.63618574 29 12 C26.17620826 11.55406526 23.47402268 11.61710441 20.625 11.75 C18.10875 11.8325 15.5925 11.915 13 12 Z " fill="#080808" transform="translate(347,684)"/>
<path d="M0 0 C3.61328125 0.03255208 7.2265625 0.06510417 10.83984375 0.09765625 C10.50984375 6.69765625 10.17984375 13.29765625 9.83984375 20.09765625 C10.49984375 20.42765625 11.15984375 20.75765625 11.83984375 21.09765625 C11.83984375 21.75765625 11.83984375 22.41765625 11.83984375 23.09765625 C15.61118855 20.01900743 19.11372249 16.93557464 22.33984375 13.28515625 C22.93023438 12.61871094 23.520625 11.95226562 24.12890625 11.265625 C25.912757 9.12370749 25.912757 9.12370749 27.23828125 6.5859375 C28.926203 3.74147678 30.12093136 2.01612084 32.83984375 0.09765625 C38.43117502 -1.01284619 44.20713124 -0.41556053 49.83984375 0.09765625 C48.35570645 3.58420101 46.37770323 5.73956697 43.65234375 8.34765625 C40.0282487 11.88421277 36.63039425 15.51744479 33.34765625 19.37109375 C31.83984375 21.09765625 31.83984375 21.09765625 30.08203125 22.57421875 C28.64998182 24.00114132 28.64998182 24.00114132 28.84765625 25.88671875 C30.30460729 29.13331043 32.48044628 31.73711752 34.71484375 34.47265625 C35.71250703 35.71593127 36.70989452 36.95942763 37.70703125 38.203125 C38.22233398 38.84169434 38.73763672 39.48026367 39.26855469 40.13818359 C40.8319263 42.08778281 42.3745226 44.05193606 43.91015625 46.0234375 C44.4014502 46.6539502 44.89274414 47.28446289 45.39892578 47.93408203 C46.3408081 49.14407046 47.28192179 50.3546577 48.22216797 51.56591797 C50.30203891 54.224698 52.36562843 56.79435712 54.83984375 59.09765625 C52.58984375 59.59765625 52.58984375 59.59765625 48.83984375 60.09765625 C47.9890625 60.32839844 47.13828125 60.55914063 46.26171875 60.796875 C42.47820011 61.4291475 40.48996347 61.41692585 36.83984375 60.09765625 C31.80523321 55.45062459 27.96558338 49.63822007 24.16162109 43.97705078 C22.83943905 41.98284653 22.83943905 41.98284653 20.83984375 40.09765625 C20.21484375 37.97265625 20.21484375 37.97265625 19.83984375 36.09765625 C16.8699407 35.77402051 16.8699407 35.77402051 15.234375 37.4609375 C11.1337589 42.51330153 10.24864938 46.00912076 10.7265625 52.484375 C10.83984375 55.09765625 10.83984375 55.09765625 9.83984375 60.09765625 C5.54984375 60.09765625 1.25984375 60.09765625 -3.16015625 60.09765625 C-5.71205284 52.44196648 -4.42292334 42.98995054 -3.16015625 35.09765625 C-3.82015625 35.09765625 -4.48015625 35.09765625 -5.16015625 35.09765625 C-4.95390625 34.31390625 -4.74765625 33.53015625 -4.53515625 32.72265625 C-4.41140625 31.85640625 -4.28765625 30.99015625 -4.16015625 30.09765625 C-4.82015625 29.43765625 -5.48015625 28.77765625 -6.16015625 28.09765625 C-5.17015625 28.09765625 -4.18015625 28.09765625 -3.16015625 28.09765625 C-3.16015625 27.43765625 -3.16015625 26.77765625 -3.16015625 26.09765625 C-3.82015625 25.76765625 -4.48015625 25.43765625 -5.16015625 25.09765625 C-4.50015625 25.09765625 -3.84015625 25.09765625 -3.16015625 25.09765625 C-3.23234375 24.28683594 -3.30453125 23.47601562 -3.37890625 22.640625 C-4.60716375 7.98683066 -4.60716375 7.98683066 -4.16015625 1.09765625 C-3.16015625 0.09765625 -3.16015625 0.09765625 0 0 Z " fill="#090A0A" transform="translate(744.16015625,683.90234375)"/>
<path d="M0 0 C5.28 0 10.56 0 16 0 C16.97839844 2.29453125 17.95679688 4.5890625 18.96484375 6.953125 C29.86731438 33.26040144 29.86731438 33.26040144 42 59 C37.01354726 60.32972073 32.12222534 60.06829634 27 60 C24.69 55.71 22.38 51.42 20 47 C12.08 47 4.16 47 -4 47 C-4.763125 48.959375 -5.52625 50.91875 -6.3125 52.9375 C-9.13176192 58.67719354 -9.13176192 58.67719354 -12.7421875 60.01953125 C-15.5564089 60.23974221 -18.18898216 60.22947084 -21 60 C-21.99 60 -22.98 60 -24 60 C-23.41999557 55.62204668 -22.32653077 51.99780233 -20.55859375 47.95703125 C-20.06069336 46.80904053 -19.56279297 45.6610498 -19.04980469 44.47827148 C-18.78631226 43.87925018 -18.52281982 43.28022888 -18.25134277 42.66305542 C-17.42982711 40.795053 -16.6166219 38.92363323 -15.80566406 37.05102539 C-14.7200238 34.54551035 -13.63170382 32.04119488 -12.54052734 29.53808594 C-10.42487897 24.67913567 -8.32718656 19.81300411 -6.25 14.9375 C-5.91540771 14.16575439 -5.58081543 13.39400879 -5.23608398 12.59887695 C-3.94924386 9.57433554 -3 7.32275371 -3 4 C-2.34 4 -1.68 4 -1 4 C-0.67 2.68 -0.34 1.36 0 0 Z M7 15 C5.80077976 17.76628111 4.61539501 20.537155 3.4375 23.3125 C3.09525391 24.09818359 2.75300781 24.88386719 2.40039062 25.69335938 C2.08134766 26.45068359 1.76230469 27.20800781 1.43359375 27.98828125 C1.13509521 28.68477783 0.83659668 29.38127441 0.52905273 30.09887695 C-0.24530488 32.19573589 -0.24530488 32.19573589 1 35 C1.33 34.67 1.66 34.34 2 34 C2 34.33 2 34.66 2 35 C6.62 35 11.24 35 16 35 C13.83836487 28.06001352 11.1063786 21.56882431 8 15 C7.67 15 7.34 15 7 15 Z " fill="#090909" transform="translate(299,684)"/>
<path d="M0 0 C1.39456867 0.00574201 2.78910972 0.01875397 4.18359375 0.03515625 C6.15380493 0.05171265 6.15380493 0.05171265 8.16381836 0.06860352 C9.30471924 0.07819092 10.44562012 0.08777832 11.62109375 0.09765625 C16.798602 10.99090868 21.65049106 21.99964424 26.37109375 33.09765625 C27.03622688 34.65634879 27.70159064 36.21494293 28.3671875 37.7734375 C31.64945023 45.46100908 31.64945023 45.46100908 32.81481934 48.22802734 C33.36581717 49.50570831 33.93864704 50.77413646 34.52990723 52.03369141 C36.72538043 56.7847962 36.72538043 56.7847962 35.62109375 60.09765625 C33.66283502 60.12460476 31.70447149 60.14402843 29.74609375 60.16015625 C28.11027344 60.17755859 28.11027344 60.17755859 26.44140625 60.1953125 C23.62109375 60.09765625 23.62109375 60.09765625 21.62109375 59.09765625 C20.55078125 56.8828125 20.55078125 56.8828125 19.49609375 54.16015625 C19.14289062 53.26425781 18.7896875 52.36835937 18.42578125 51.4453125 C17.62109375 49.09765625 17.62109375 49.09765625 17.62109375 47.09765625 C9.04109375 47.09765625 0.46109375 47.09765625 -8.37890625 47.09765625 C-10.02890625 51.05765625 -11.67890625 55.01765625 -13.37890625 59.09765625 C-14.90515625 59.26265625 -16.43140625 59.42765625 -18.00390625 59.59765625 C-18.86242187 59.69046875 -19.7209375 59.78328125 -20.60546875 59.87890625 C-23.54092619 60.11043529 -26.43555502 60.13218236 -29.37890625 60.09765625 C-29.10739746 59.4742334 -28.83588867 58.85081055 -28.55615234 58.20849609 C-26.369198 53.18581255 -24.1847568 48.16205585 -22.00390625 43.13671875 C-20.47159726 39.60646376 -18.93289713 36.07935433 -17.37890625 32.55859375 C-16.83720822 31.32162832 -16.29553859 30.08465045 -15.75390625 28.84765625 C-15.28726563 27.790625 -14.820625 26.73359375 -14.33984375 25.64453125 C-13.20240132 23.08353421 -13.20240132 23.08353421 -13.37890625 20.09765625 C-12.71890625 20.09765625 -12.05890625 20.09765625 -11.37890625 20.09765625 C-11.20875 19.56398438 -11.03859375 19.0303125 -10.86328125 18.48046875 C-4.89838048 0.14157169 -4.89838048 0.14157169 0 0 Z M3.62109375 15.09765625 C0.98109375 21.69765625 -1.65890625 28.29765625 -4.37890625 35.09765625 C1.23109375 35.09765625 6.84109375 35.09765625 12.62109375 35.09765625 C8.79289763 25.0272696 8.79289763 25.0272696 4.62109375 15.09765625 C4.29109375 15.09765625 3.96109375 15.09765625 3.62109375 15.09765625 Z " fill="#090A0A" transform="translate(637.37890625,683.90234375)"/>
<path d="M0 0 C2.56175724 2.2127538 4.9995702 4.34495909 7.21875 6.90234375 C7.21875 7.89234375 7.21875 8.88234375 7.21875 9.90234375 C5.25 11.5078125 5.25 11.5078125 2.71875 13.08984375 C1.8834375 13.61964844 1.048125 14.14945313 0.1875 14.6953125 C-0.4621875 15.09363281 -1.111875 15.49195313 -1.78125 15.90234375 C-2.2659375 15.49242187 -2.750625 15.0825 -3.25 14.66015625 C-8.41417033 10.50895779 -13.05464551 7.46388322 -19.88671875 8.09765625 C-24.3532028 9.0194447 -27.63920605 10.49098175 -30.78125 13.90234375 C-33.74513949 19.38792954 -34.77090359 24.8286534 -33.27734375 30.9765625 C-31.77335351 35.6260409 -30.11022243 38.34431458 -25.78125 40.90234375 C-20.65462149 42.93364939 -16.09115467 43.45835977 -10.78125 41.90234375 C-7.63212026 40.41116705 -4.76519943 38.72068794 -1.78125 36.90234375 C1.18875 38.88234375 4.15875 40.86234375 7.21875 42.90234375 C4.17125353 48.9973367 -0.83420569 52.59884338 -7.03125 55.33984375 C-17.61155559 56.92688959 -26.56402203 56.31572381 -35.96875 51.15234375 C-41.44021644 46.7751706 -44.83461368 42.71557087 -46.78125 35.90234375 C-47.44125 35.57234375 -48.10125 35.24234375 -48.78125 34.90234375 C-49.09366455 32.18787396 -49.29461592 29.56325014 -49.40625 26.83984375 C-49.44492188 26.08123047 -49.48359375 25.32261719 -49.5234375 24.54101562 C-49.61798562 22.6618718 -49.70071756 20.78214039 -49.78125 18.90234375 C-49.12125 18.90234375 -48.46125 18.90234375 -47.78125 18.90234375 C-47.74 18.09796875 -47.69875 17.29359375 -47.65625 16.46484375 C-45.59372459 8.06741888 -39.98771255 2.35167791 -32.78125 -2.09765625 C-22.86953717 -7.43473239 -8.99153301 -6.78153543 0 0 Z " fill="#0A0A0A" transform="translate(265.78125,688.09765625)"/>
<path d="M0 0 C3.23872489 2.47805584 4.93498377 4.89158383 6.05078125 8.796875 C4.81343141 9.83300533 3.56033488 10.85035302 2.30078125 11.859375 C1.6046875 12.42785156 0.90859375 12.99632812 0.19140625 13.58203125 C-1.94921875 14.796875 -1.94921875 14.796875 -4.02734375 14.60546875 C-6.59300476 13.52601381 -8.6607082 12.04559099 -10.76171875 10.234375 C-14.737742 7.62155972 -18.45539186 7.52090641 -23.01171875 8.421875 C-27.70989678 9.75137853 -30.4640514 12.44666281 -33.0625 16.55859375 C-34.23814214 19.52618383 -34.25066978 22.04858978 -34.26171875 25.234375 C-34.27847656 26.34683594 -34.29523437 27.45929687 -34.3125 28.60546875 C-33.9146308 32.10072828 -32.88011163 33.90817774 -30.94921875 36.796875 C-30.94921875 37.456875 -30.94921875 38.116875 -30.94921875 38.796875 C-29.28937077 39.48034182 -27.6208507 40.14275815 -25.94921875 40.796875 C-24.58796875 41.3846875 -24.58796875 41.3846875 -23.19921875 41.984375 C-16.73916694 43.59938795 -11.66256629 42.43107049 -5.88671875 39.234375 C-4.58734375 38.43 -3.28796875 37.625625 -1.94921875 36.796875 C1.02078125 38.776875 3.99078125 40.756875 7.05078125 42.796875 C4.13700428 48.62442893 -0.66691141 51.98557791 -6.57421875 54.671875 C-15.27812353 57.52757657 -25.14076554 56.6414846 -33.48046875 53.109375 C-41.78420535 48.69473022 -46.15156973 42.74452834 -48.94921875 33.796875 C-51.12510924 23.40413488 -49.41517846 14.98849861 -43.7109375 6.09375 C-33.23228356 -7.56799838 -14.10258727 -8.70460297 0 0 Z " fill="#0A0B0A" transform="translate(725.94921875,688.203125)"/>
<path d="M0 0 C16.17 0 32.34 0 49 0 C49 3.96 49 7.92 49 12 C43.06 12 37.12 12 31 12 C31.03552979 13.38300293 31.07105957 14.76600586 31.10766602 16.19091797 C31.2377606 21.30830957 31.36101715 26.42584675 31.48217773 31.54345703 C31.53564069 33.76095096 31.59097328 35.97840062 31.64819336 38.19580078 C31.72998452 41.37783255 31.8051129 44.55996149 31.87890625 47.7421875 C31.90594131 48.73805878 31.93297638 49.73393005 31.96083069 50.75997925 C31.98092697 51.68078278 32.00102325 52.6015863 32.02172852 53.55029297 C32.04171402 54.3630368 32.06169952 55.17578064 32.08229065 56.01315308 C32 58 32 58 31 60 C28.85423363 60.02685938 26.70837355 60.04633088 24.5625 60.0625 C23.36753906 60.07410156 22.17257812 60.08570313 20.94140625 60.09765625 C18 60 18 60 17 59 C16.87778475 57.55815707 16.82227242 56.11056856 16.79467773 54.66381836 C16.77473251 53.7429393 16.75478729 52.82206024 16.73423767 51.87327576 C16.71752518 50.87224319 16.70081268 49.87121063 16.68359375 48.83984375 C16.66281265 47.82024063 16.64203156 46.80063751 16.62062073 45.75013733 C16.55501148 42.47932952 16.49618766 39.20843863 16.4375 35.9375 C16.39432558 33.72590272 16.35071166 31.51431397 16.30664062 29.30273438 C16.19931855 23.86857564 16.09808355 18.43433302 16 13 C10.72 13 5.44 13 0 13 C0 8.71 0 4.42 0 0 Z " fill="#0A0A0A" transform="translate(496,684)"/>
<path d="M0 0 C1.04693527 -0.00143509 1.04693527 -0.00143509 2.11502075 -0.00289917 C3.5927947 -0.00358005 5.07057163 -0.00173217 6.54833984 0.00244141 C8.80443094 0.00777495 11.06032149 0.00250168 13.31640625 -0.00390625 C14.7526046 -0.00324514 16.18880283 -0.00196329 17.625 0 C18.93194824 0.00112793 20.23889648 0.00225586 21.58544922 0.00341797 C24.9453125 0.1328125 24.9453125 0.1328125 26.90316772 0.62806702 C28.99224086 1.14441152 30.8313654 1.2893137 32.97949219 1.33813477 C34.15025299 1.3680526 34.15025299 1.3680526 35.34466553 1.39857483 C36.17709778 1.41528732 37.00953003 1.43199982 37.8671875 1.44921875 C39.15716644 1.4803904 39.15716644 1.4803904 40.47320557 1.51219177 C43.21382848 1.57744989 45.95454525 1.63646167 48.6953125 1.6953125 C50.5559992 1.73852031 52.41667648 1.78213532 54.27734375 1.82617188 C58.83323773 1.93310692 63.3892259 2.03444101 67.9453125 2.1328125 C67.9453125 2.4628125 67.9453125 2.7928125 67.9453125 3.1328125 C42.5353125 3.1328125 17.1253125 3.1328125 -9.0546875 3.1328125 C-9.0546875 2.4728125 -9.0546875 1.8128125 -9.0546875 1.1328125 C-6.06508542 -0.36198854 -3.33120257 0.00287988 0 0 Z " fill="#F7AF4E" transform="translate(404.0546875,360.8671875)"/>
<path d="M0 0 C-3.46008142 2.30672095 -5.92481479 2.48134006 -10 3 C-10.99 3.495 -10.99 3.495 -12 4 C-13.67654729 3.72057545 -15.34608154 3.39171753 -17 3 C-17.89886848 8.00798151 -18.43452505 12.91072544 -19 18 C-4.15 18 10.7 18 26 18 C26 18.33 26 18.66 26 19 C10.82 19 -4.36 19 -20 19 C-20 4 -20 4 -18 2 C-12.0747161 0.40813268 -6.11764697 -0.27189542 0 0 Z " fill="#9CCC74" transform="translate(540,313)"/>
<path d="M0 0 C2.31 0 4.62 0 7 0 C7 0.33 7 0.66 7 1 C5.35 1.33 3.7 1.66 2 2 C1.34 18.83 0.68 35.66 0 53 C-0.33 53 -0.66 53 -1 53 C-1.02529174 45.77344508 -1.04284219 38.5469015 -1.05493164 31.3203125 C-1.05996989 28.86034722 -1.0668006 26.40038495 -1.07543945 23.94042969 C-1.08752723 20.41079975 -1.09323329 16.88120931 -1.09765625 13.3515625 C-1.10281754 12.24632233 -1.10797882 11.14108215 -1.11329651 10.00234985 C-1.11337204 8.98144257 -1.11344757 7.96053528 -1.11352539 6.90869141 C-1.115746 6.00712311 -1.11796661 5.10555481 -1.12025452 4.17666626 C-1 2 -1 2 0 0 Z " fill="#E5A464" transform="translate(346,538)"/>
<path d="M0 0 C1 2 1 2 0.22265625 4.6015625 C-0.16019531 5.59929687 -0.54304688 6.59703125 -0.9375 7.625 C-1.31777344 8.62789063 -1.69804687 9.63078125 -2.08984375 10.6640625 C-2.39019531 11.43492187 -2.69054687 12.20578125 -3 13 C-3.66 11.68 -4.32 10.36 -5 9 C-5.99 10.32 -6.98 11.64 -8 13 C-8.66 12.67 -9.32 12.34 -10 12 C-8.52149287 10.18696196 -7.04217625 8.37458402 -5.5625 6.5625 C-4.32693359 5.04849609 -4.32693359 5.04849609 -3.06640625 3.50390625 C-1 1 -1 1 0 0 Z " fill="#AD5799" transform="translate(333,451)"/>
<path d="M0 0 C4.79851231 1.25862618 8.27077678 3.53187102 11.8125 7 C11.8125 7.66 11.8125 8.32 11.8125 9 C9.64964948 7.9958194 7.84386246 7.02595514 6 5.5 C3.48358015 3.77445496 1.55473315 3.32432936 -1.4375 2.8125 C-2.32953125 2.65394531 -3.2215625 2.49539063 -4.140625 2.33203125 C-4.81609375 2.22246094 -5.4915625 2.11289062 -6.1875 2 C-3.1875 0 -3.1875 0 0 0 Z " fill="#AADE45" transform="translate(572.1875,330)"/>
<path d="M0 0 C4.8333472 -0.08333357 9.23692563 0.04738513 14 1 C14 1.66 14 2.32 14 3 C15.98 3.66 17.96 4.32 20 5 C20 5.66 20 6.32 20 7 C16.62502674 5.90313369 13.30247071 4.73308466 10 3.4375 C6.69477459 2.17897186 3.52223906 1.44027988 0 1 C0 0.67 0 0.34 0 0 Z " fill="#A749A1" transform="translate(574,287)"/>
<path d="M0 0 C6.6 0 13.2 0 20 0 C20.33 0.99 20.66 1.98 21 3 C13.25 3.125 13.25 3.125 11 2 C9.12943209 1.7724985 7.25314042 1.59037189 5.375 1.4375 C4.37210937 1.35371094 3.36921875 1.26992188 2.3359375 1.18359375 C1.56507813 1.12300781 0.79421875 1.06242187 0 1 C0 0.67 0 0.34 0 0 Z " fill="#E5AB61" transform="translate(373,361)"/>
<path d="M0 0 C4.23035473 -0.50361366 5.70584886 -0.20929985 9.25 2.3125 C12 5 12 5 14 8 C13.67 8.99 13.34 9.98 13 11 C12.56429688 10.43410156 12.12859375 9.86820312 11.6796875 9.28515625 C7.92938682 4.51056427 7.92938682 4.51056427 2.5625 2 C1.716875 2 0.87125 2 0 2 C0 1.34 0 0.68 0 0 Z " fill="#EDB44B" transform="translate(488,366)"/>
<path d="M0 0 C0 0.66 0 1.32 0 2 C-3.82942948 4.90108294 -7.27536912 5.53680089 -12 6 C-10.66144904 3.32289809 -9.27941912 3.04870906 -6.5625 1.875 C-5.75941406 1.52179688 -4.95632813 1.16859375 -4.12890625 0.8046875 C-2 0 -2 0 0 0 Z " fill="#ECA763" transform="translate(478,499)"/>
<path d="M0 0 C0 0.66 0 1.32 0 2 C-5.71735105 4.45029331 -9.79029227 5.33266291 -16 5 C-13.02880106 3.41075405 -10.10429288 2.32932834 -6.875 1.375 C-6.00617188 1.11460937 -5.13734375 0.85421875 -4.2421875 0.5859375 C-2 0 -2 0 0 0 Z " fill="#A547A0" transform="translate(396,488)"/>
<path d="M0 0 C0.33 0 0.66 0 1 0 C0.50341703 5.66104589 -0.54510684 9.87674471 -3 15 C-4 12 -4 12 -4 8 C-3.34 8 -2.68 8 -2 8 C-1.7834375 7.13375 -1.7834375 7.13375 -1.5625 6.25 C-1.04166667 4.16666667 -0.52083333 2.08333333 0 0 Z " fill="#A648A2" transform="translate(637,336)"/>
<path d="M0 0 C0.33 0.99 0.66 1.98 1 3 C-1.54605302 5.00047023 -3.9664636 6.82572785 -7 8 C-7.99 7.67 -8.98 7.34 -10 7 C-6.7 4.69 -3.4 2.38 0 0 Z " fill="#9E46A3" transform="translate(517,423)"/>
<path d="M0 0 C0 1.32 0 2.64 0 4 C-1.98 4 -3.96 4 -6 4 C-6 4.66 -6 5.32 -6 6 C-7.32 5.67 -8.64 5.34 -10 5 C-8.71186658 4.16121545 -7.41936744 3.32913217 -6.125 2.5 C-5.40570313 2.0359375 -4.68640625 1.571875 -3.9453125 1.09375 C-2 0 -2 0 0 0 Z " fill="#E2AB5E" transform="translate(504,484)"/>
<path d="M0 0 C-0.99 1.485 -0.99 1.485 -2 3 C-6.95 2.67 -11.9 2.34 -17 2 C-17 1.67 -17 1.34 -17 1 C-15.10440036 0.83069605 -13.20850769 0.66467136 -11.3125 0.5 C-10.25675781 0.4071875 -9.20101563 0.314375 -8.11328125 0.21875 C-5.39363975 0.0276585 -2.72460144 -0.04043935 0 0 Z " fill="#E19C68" transform="translate(370,536)"/>
<path d="M0 0 C0.66 0.33 1.32 0.66 2 1 C-1.08290155 5.22797927 -1.08290155 5.22797927 -3 7 C-5.8125 7.375 -5.8125 7.375 -8 7 C-5.4837822 4.39391727 -2.94865641 2.10618315 0 0 Z " fill="#7AB9BD" transform="translate(532,464)"/>
<path d="M0 0 C0.66 0.33 1.32 0.66 2 1 C-0.51830747 4.12270126 -1.7261549 4.94523098 -5.75 5.75 C-7.35875 5.87375 -7.35875 5.87375 -9 6 C-6.12050853 3.76039553 -3.23257974 1.70135776 0 0 Z " fill="#A74B9F" transform="translate(467,455)"/>
<path d="M0 0 C0 3.16880694 -0.2058242 4.43689172 -2 7 C-4.625 7.75 -4.625 7.75 -7 8 C-6.02133662 6.85373678 -5.04205413 5.70800212 -4.0625 4.5625 C-3.51722656 3.92441406 -2.97195313 3.28632813 -2.41015625 2.62890625 C-1.63204305 1.73008851 -0.84063472 0.84063472 0 0 Z " fill="#9D50AB" transform="translate(574,372)"/>
<path d="M0 0 C0.33 0 0.66 0 1 0 C0.88557539 1.60495567 0.75805306 3.20898119 0.625 4.8125 C0.55539062 5.70582031 0.48578125 6.59914063 0.4140625 7.51953125 C0 10 0 10 -2 13 C-2.66 13 -3.32 13 -4 13 C-3.79503906 12.39671875 -3.59007812 11.7934375 -3.37890625 11.171875 C-2.97478516 9.97304688 -2.97478516 9.97304688 -2.5625 8.75 C-2.29566406 7.96109375 -2.02882813 7.1721875 -1.75390625 6.359375 C-1.08045292 4.25178012 -0.50849405 2.15246027 0 0 Z " fill="#A2469F" transform="translate(603,324)"/>
<path d="M0 0 C1.64826111 2.96687001 2.44271087 5.65626525 3 9 C-0.3 8.67 -3.6 8.34 -7 8 C-7 7.67 -7 7.34 -7 7 C-4.36 7 -1.72 7 1 7 C0.67 4.69 0.34 2.38 0 0 Z " fill="#A9649F" transform="translate(534,299)"/>
<path d="M0 0 C0.33 0.66 0.66 1.32 1 2 C4.63 2 8.26 2 12 2 C12 2.33 12 2.66 12 3 C8.37 3 4.74 3 1 3 C1 4.65 1 6.3 1 8 C-0.42944945 5.64561267 -1.08661261 4.51967567 -0.625 1.75 C-0.41875 1.1725 -0.2125 0.595 0 0 Z " fill="#A1BA66" transform="translate(647,298)"/>
<path d="M0 0 C0.99 0.33 1.98 0.66 3 1 C2.67 1.99 2.34 2.98 2 4 C0.15234375 4.73046875 0.15234375 4.73046875 -2.0625 5.1875 C-2.79597656 5.34605469 -3.52945313 5.50460937 -4.28515625 5.66796875 C-5.13400391 5.83232422 -5.13400391 5.83232422 -6 6 C-4 4 -2 2 0 0 Z " fill="#9A47A8" transform="translate(541,404)"/>
<path d="M0 0 C0.66 0 1.32 0 2 0 C1.67 3.63 1.34 7.26 1 11 C0.67 11 0.34 11 0 11 C-0.19406478 9.35492782 -0.38007935 7.70890406 -0.5625 6.0625 C-0.66691406 5.14597656 -0.77132813 4.22945313 -0.87890625 3.28515625 C-0.91886719 2.53105469 -0.95882813 1.77695312 -1 1 C-0.67 0.67 -0.34 0.34 0 0 Z " fill="#AC51A2" transform="translate(327,464)"/>
<path d="M0 0 C-5.75 4 -5.75 4 -8 4 C-5.97675095 -0.48005146 -4.79569304 -1.43870791 0 0 Z " fill="#E9A763" transform="translate(498,429)"/>
<path d="M0 0 C0.99 0.33 1.98 0.66 3 1 C1.6875 2.5 1.6875 2.5 0 4 C-0.99 4 -1.98 4 -3 4 C-3 4.66 -3 5.32 -3 6 C-3.66 6 -4.32 6 -5 6 C-3.86525052 2.59575156 -3.03188696 1.78346291 0 0 Z " fill="#9D49A7" transform="translate(493,295)"/>
<path d="M0 0 C1.485 0.99 1.485 0.99 3 2 C2.01 2 1.02 2 0 2 C0 1.34 0 0.68 0 0 Z " fill="#393A38" transform="translate(629,731)"/>
<path d="M0 0 C4 1 4 1 4 1 Z " fill="#D38A7C" transform="translate(372,487)"/>
<path d="M0 0 C0.66 0 1.32 0 2 0 C2 0.66 2 1.32 2 2 C1.34 2 0.68 2 0 2 C0 1.34 0 0.68 0 0 Z " fill="#A68FA2" transform="translate(510,422)"/>
<path d="M0 0 C0.66 0 1.32 0 2 0 C1.67 0.66 1.34 1.32 1 2 C0.67 1.34 0.34 0.68 0 0 Z " fill="#363736" transform="translate(656,741)"/>
<path d="M0 0 C3 1 3 1 3 1 Z " fill="#CC7F88" transform="translate(355,532)"/>
<path d="" fill="#A5D054" transform="translate(0,0)"/>
<path d="M0 0 C0.66 0 1.32 0 2 0 C1.67 0.66 1.34 1.32 1 2 C0.67 1.34 0.34 0.68 0 0 Z " fill="#9698B8" transform="translate(567,434)"/>
<path d="" fill="#3C3C39" transform="translate(0,0)"/>
<path d="M0 0 C2 1 2 1 2 1 Z " fill="#333232" transform="translate(568,727)"/>
<path d="" fill="#3D3D3A" transform="translate(0,0)"/>
<path d="" fill="#3B3C3B" transform="translate(0,0)"/>
<path d="" fill="#3B3C39" transform="translate(0,0)"/>
<path d="M0 0 C2 1 2 1 2 1 Z " fill="#424240" transform="translate(636,717)"/>
<path d="" fill="#3E3D3B" transform="translate(0,0)"/>
<path d="" fill="#41413F" transform="translate(0,0)"/>
<path d="" fill="#3E3D3C" transform="translate(0,0)"/>
<path d="M0 0 C2 1 2 1 2 1 Z " fill="#40423D" transform="translate(718,683)"/>
<path d="M0 0 C2 1 2 1 2 1 Z " fill="#41413E" transform="translate(752,682)"/>
<path d="M0 0 C2 1 2 1 2 1 Z " fill="#50473E" transform="translate(348,682)"/>
<path d="M0 0 C2 1 2 1 2 1 Z " fill="#D8A364" transform="translate(452,620)"/>
<path d="" fill="#9FD283" transform="translate(0,0)"/>
<path d="M0 0 C2 1 2 1 2 1 Z " fill="#C6788B" transform="translate(348,532)"/>
<path d="M0 0 C2 1 2 1 2 1 Z " fill="#CC8183" transform="translate(366,531)"/>
<path d="M0 0 C2 1 2 1 2 1 Z " fill="#CD8786" transform="translate(406,523)"/>
<path d="" fill="#A3CF54" transform="translate(0,0)"/>
<path d="" fill="#C88E88" transform="translate(0,0)"/>
<path d="" fill="#CA818C" transform="translate(0,0)"/>
<path d="" fill="#A4CF54" transform="translate(0,0)"/>
<path d="M0 0 C2 1 2 1 2 1 Z " fill="#A09AA5" transform="translate(504,480)"/>
<path d="M0 0 C2 1 2 1 2 1 Z " fill="#C27E8E" transform="translate(443,466)"/>
<path d="" fill="#A4D154" transform="translate(0,0)"/>
<path d="M0 0 C2 1 2 1 2 1 Z " fill="#949ABA" transform="translate(532,462)"/>
<path d="" fill="#A4CF55" transform="translate(0,0)"/>
<path d="M0 0 C2 1 2 1 2 1 Z " fill="#919ABC" transform="translate(549,450)"/>
<path d="" fill="#9496BE" transform="translate(0,0)"/>
<path d="" fill="#C98C85" transform="translate(0,0)"/>
<path d="" fill="#A4D154" transform="translate(0,0)"/>
<path d="M0 0 C2 1 2 1 2 1 Z " fill="#9198B9" transform="translate(564,438)"/>
<path d="M0 0 C2 1 2 1 2 1 Z " fill="#AE8D9D" transform="translate(507,425)"/>
<path d="M0 0 C2 1 2 1 2 1 Z " fill="#A3949D" transform="translate(507,423)"/>
<path d="" fill="#9C90B7" transform="translate(0,0)"/>
<path d="" fill="#AB9894" transform="translate(0,0)"/>
<path d="" fill="#A3CD52" transform="translate(0,0)"/>
<path d="" fill="#9595B8" transform="translate(0,0)"/>
<path d="M0 0 C2 1 2 1 2 1 Z " fill="#9397B9" transform="translate(544,393)"/>
<path d="" fill="#A1CC51" transform="translate(0,0)"/>
<path d="" fill="#9FC854" transform="translate(0,0)"/>
<path d="" fill="#AE928C" transform="translate(0,0)"/>
<path d="" fill="#9489AA" transform="translate(0,0)"/>
<path d="M0 0 C2 1 2 1 2 1 Z " fill="#B08A90" transform="translate(585,292)"/>
<path d="" fill="#383A38" transform="translate(0,0)"/>
<path d="" fill="#353634" transform="translate(0,0)"/>
<path d="" fill="#393A38" transform="translate(0,0)"/>
<path d="" fill="#3A3A39" transform="translate(0,0)"/>
<path d="" fill="#373A3A" transform="translate(0,0)"/>
<path d="" fill="#383937" transform="translate(0,0)"/>
<path d="" fill="#393837" transform="translate(0,0)"/>
<path d="" fill="#383735" transform="translate(0,0)"/>
<path d="" fill="#3D3C3B" transform="translate(0,0)"/>
<path d="" fill="#413F3D" transform="translate(0,0)"/>
<path d="" fill="#3C3A38" transform="translate(0,0)"/>
<path d="" fill="#373936" transform="translate(0,0)"/>
<path d="" fill="#383837" transform="translate(0,0)"/>
<path d="" fill="#3C3D3C" transform="translate(0,0)"/>
<path d="" fill="#3A3C3B" transform="translate(0,0)"/>
<path d="" fill="#3A3B39" transform="translate(0,0)"/>
<path d="" fill="#3C3C3A" transform="translate(0,0)"/>
<path d="" fill="#3A3B3A" transform="translate(0,0)"/>
<path d="" fill="#3B3B39" transform="translate(0,0)"/>
<path d="" fill="#3C3B3A" transform="translate(0,0)"/>
<path d="" fill="#3B3A3B" transform="translate(0,0)"/>
<path d="" fill="#373634" transform="translate(0,0)"/>
<path d="" fill="#3F3E3D" transform="translate(0,0)"/>
<path d="" fill="#3E3E3D" transform="translate(0,0)"/>
<path d="" fill="#333332" transform="translate(0,0)"/>
<path d="" fill="#323331" transform="translate(0,0)"/>
<path d="" fill="#383A38" transform="translate(0,0)"/>
<path d="" fill="#393937" transform="translate(0,0)"/>
<path d="" fill="#3B3C3C" transform="translate(0,0)"/>
<path d="" fill="#3A3B38" transform="translate(0,0)"/>
<path d="" fill="#3C3C39" transform="translate(0,0)"/>
<path d="" fill="#3B3B3A" transform="translate(0,0)"/>
<path d="" fill="#3A3935" transform="translate(0,0)"/>
<path d="" fill="#3A3937" transform="translate(0,0)"/>
<path d="" fill="#3A3C39" transform="translate(0,0)"/>
<path d="" fill="#393B38" transform="translate(0,0)"/>
<path d="" fill="#3C3E3D" transform="translate(0,0)"/>
<path d="" fill="#3A3935" transform="translate(0,0)"/>
<path d="" fill="#393937" transform="translate(0,0)"/>
<path d="" fill="#393939" transform="translate(0,0)"/>
<path d="" fill="#3C3C3A" transform="translate(0,0)"/>
<path d="" fill="#3A3939" transform="translate(0,0)"/>
<path d="" fill="#383838" transform="translate(0,0)"/>
<path d="" fill="#373735" transform="translate(0,0)"/>
<path d="" fill="#3D3D3C" transform="translate(0,0)"/>
<path d="" fill="#3B3C3A" transform="translate(0,0)"/>
<path d="" fill="#3E3C3A" transform="translate(0,0)"/>
<path d="" fill="#3C393B" transform="translate(0,0)"/>
<path d="" fill="#3C3E3E" transform="translate(0,0)"/>
<path d="" fill="#3C3A3C" transform="translate(0,0)"/>
<path d="" fill="#3D403E" transform="translate(0,0)"/>
<path d="" fill="#393A38" transform="translate(0,0)"/>
<path d="" fill="#393B38" transform="translate(0,0)"/>
<path d="" fill="#3D3C3B" transform="translate(0,0)"/>
<path d="" fill="#3B3C38" transform="translate(0,0)"/>
<path d="" fill="#3D3F3F" transform="translate(0,0)"/>
<path d="" fill="#3D3E3C" transform="translate(0,0)"/>
<path d="" fill="#3E3C3A" transform="translate(0,0)"/>
<path d="" fill="#3A3A39" transform="translate(0,0)"/>
<path d="" fill="#3C3F3B" transform="translate(0,0)"/>
<path d="" fill="#3B3B37" transform="translate(0,0)"/>
<path d="" fill="#3B3A3A" transform="translate(0,0)"/>
<path d="" fill="#413F3B" transform="translate(0,0)"/>
<path d="" fill="#3C3B3B" transform="translate(0,0)"/>
<path d="" fill="#383737" transform="translate(0,0)"/>
<path d="" fill="#3A3939" transform="translate(0,0)"/>
<path d="" fill="#3C3E3D" transform="translate(0,0)"/>
<path d="" fill="#3D3E3C" transform="translate(0,0)"/>
<path d="" fill="#3D3E3D" transform="translate(0,0)"/>
<path d="" fill="#403E3D" transform="translate(0,0)"/>
<path d="" fill="#3A3C3A" transform="translate(0,0)"/>
<path d="" fill="#3F3F3E" transform="translate(0,0)"/>
<path d="" fill="#3B3E3B" transform="translate(0,0)"/>
<path d="" fill="#3D3C3C" transform="translate(0,0)"/>
<path d="" fill="#3E3E3B" transform="translate(0,0)"/>
<path d="" fill="#3E3E3C" transform="translate(0,0)"/>
<path d="" fill="#483F39" transform="translate(0,0)"/>
<path d="" fill="#40423F" transform="translate(0,0)"/>
<path d="" fill="#4B433C" transform="translate(0,0)"/>
<path d="" fill="#403E3B" transform="translate(0,0)"/>
<path d="" fill="#454240" transform="translate(0,0)"/>
<path d="" fill="#40403C" transform="translate(0,0)"/>
<path d="" fill="#40403A" transform="translate(0,0)"/>
<path d="" fill="#4A4B44" transform="translate(0,0)"/>
<path d="" fill="#4B473E" transform="translate(0,0)"/>
<path d="" fill="#46433E" transform="translate(0,0)"/>
<path d="" fill="#D5A267" transform="translate(0,0)"/>
<path d="" fill="#D5A265" transform="translate(0,0)"/>
<path d="" fill="#D9A464" transform="translate(0,0)"/>
<path d="" fill="#D8A065" transform="translate(0,0)"/>
<path d="" fill="#D7A064" transform="translate(0,0)"/>
<path d="" fill="#D3A167" transform="translate(0,0)"/>
<path d="" fill="#D39E66" transform="translate(0,0)"/>
<path d="" fill="#CEA268" transform="translate(0,0)"/>
<path d="" fill="#D0A369" transform="translate(0,0)"/>
<path d="" fill="#D19B65" transform="translate(0,0)"/>
<path d="" fill="#D19D65" transform="translate(0,0)"/>
<path d="" fill="#D49E65" transform="translate(0,0)"/>
<path d="" fill="#D29E65" transform="translate(0,0)"/>
<path d="" fill="#D19E68" transform="translate(0,0)"/>
<path d="" fill="#D39F68" transform="translate(0,0)"/>
<path d="" fill="#BFB57F" transform="translate(0,0)"/>
<path d="" fill="#BBB785" transform="translate(0,0)"/>
<path d="" fill="#BAB788" transform="translate(0,0)"/>
<path d="" fill="#8FC59A" transform="translate(0,0)"/>
<path d="" fill="#95CB93" transform="translate(0,0)"/>
<path d="" fill="#9CD285" transform="translate(0,0)"/>
<path d="" fill="#A5C957" transform="translate(0,0)"/>
<path d="" fill="#A4C758" transform="translate(0,0)"/>
<path d="" fill="#9FC657" transform="translate(0,0)"/>
<path d="" fill="#D58A7E" transform="translate(0,0)"/>
<path d="" fill="#D48D7E" transform="translate(0,0)"/>
<path d="" fill="#D48B7C" transform="translate(0,0)"/>
<path d="" fill="#CB7E87" transform="translate(0,0)"/>
<path d="" fill="#C6798B" transform="translate(0,0)"/>
<path d="" fill="#C47A8C" transform="translate(0,0)"/>
<path d="" fill="#C5778B" transform="translate(0,0)"/>
<path d="" fill="#D6907E" transform="translate(0,0)"/>
<path d="" fill="#BF758C" transform="translate(0,0)"/>
<path d="" fill="#D28684" transform="translate(0,0)"/>
<path d="" fill="#D58D81" transform="translate(0,0)"/>
<path d="" fill="#D08B84" transform="translate(0,0)"/>
<path d="" fill="#AE6997" transform="translate(0,0)"/>
<path d="" fill="#CD8785" transform="translate(0,0)"/>
<path d="" fill="#D38E81" transform="translate(0,0)"/>
<path d="" fill="#CA8685" transform="translate(0,0)"/>
<path d="" fill="#D4917E" transform="translate(0,0)"/>
<path d="" fill="#D28E7E" transform="translate(0,0)"/>
<path d="" fill="#D38F81" transform="translate(0,0)"/>
<path d="" fill="#A3CC55" transform="translate(0,0)"/>
<path d="" fill="#D08B85" transform="translate(0,0)"/>
<path d="" fill="#C88788" transform="translate(0,0)"/>
<path d="" fill="#A3CD54" transform="translate(0,0)"/>
<path d="" fill="#A3589C" transform="translate(0,0)"/>
<path d="" fill="#D28C81" transform="translate(0,0)"/>
<path d="" fill="#C3848F" transform="translate(0,0)"/>
<path d="" fill="#CE8B83" transform="translate(0,0)"/>
<path d="" fill="#CD8B89" transform="translate(0,0)"/>
<path d="" fill="#CB8A88" transform="translate(0,0)"/>
<path d="" fill="#C9848A" transform="translate(0,0)"/>
<path d="" fill="#C8818C" transform="translate(0,0)"/>
<path d="" fill="#C7848A" transform="translate(0,0)"/>
<path d="" fill="#CF9085" transform="translate(0,0)"/>
<path d="" fill="#CC8788" transform="translate(0,0)"/>
<path d="" fill="#CF9084" transform="translate(0,0)"/>
<path d="" fill="#C88A86" transform="translate(0,0)"/>
<path d="" fill="#A6589F" transform="translate(0,0)"/>
<path d="" fill="#CF8D86" transform="translate(0,0)"/>
<path d="" fill="#CB8789" transform="translate(0,0)"/>
<path d="" fill="#CB8E85" transform="translate(0,0)"/>
<path d="" fill="#C17C92" transform="translate(0,0)"/>
<path d="" fill="#C47C91" transform="translate(0,0)"/>
<path d="" fill="#CC808D" transform="translate(0,0)"/>
<path d="" fill="#C67C8E" transform="translate(0,0)"/>
<path d="" fill="#C67C93" transform="translate(0,0)"/>
<path d="" fill="#BB7395" transform="translate(0,0)"/>
<path d="" fill="#C78C8D" transform="translate(0,0)"/>
<path d="" fill="#C67B8F" transform="translate(0,0)"/>
<path d="" fill="#A4CF54" transform="translate(0,0)"/>
<path d="" fill="#B58399" transform="translate(0,0)"/>
<path d="" fill="#CD8087" transform="translate(0,0)"/>
<path d="" fill="#BB8499" transform="translate(0,0)"/>
<path d="" fill="#D08583" transform="translate(0,0)"/>
<path d="" fill="#D18681" transform="translate(0,0)"/>
<path d="" fill="#B78599" transform="translate(0,0)"/>
<path d="" fill="#A5CF54" transform="translate(0,0)"/>
<path d="" fill="#9699B2" transform="translate(0,0)"/>
<path d="" fill="#A088A7" transform="translate(0,0)"/>
<path d="" fill="#9793B4" transform="translate(0,0)"/>
<path d="" fill="#C47C8F" transform="translate(0,0)"/>
<path d="" fill="#988EB7" transform="translate(0,0)"/>
<path d="" fill="#948AB2" transform="translate(0,0)"/>
<path d="" fill="#D59274" transform="translate(0,0)"/>
<path d="" fill="#978AB4" transform="translate(0,0)"/>
<path d="" fill="#A4D154" transform="translate(0,0)"/>
<path d="" fill="#C3808E" transform="translate(0,0)"/>
<path d="" fill="#C27E8E" transform="translate(0,0)"/>
<path d="" fill="#AA6699" transform="translate(0,0)"/>
<path d="" fill="#C58190" transform="translate(0,0)"/>
<path d="" fill="#9496BE" transform="translate(0,0)"/>
<path d="" fill="#9399BB" transform="translate(0,0)"/>
<path d="" fill="#9395BC" transform="translate(0,0)"/>
<path d="" fill="#C48789" transform="translate(0,0)"/>
<path d="" fill="#949BBB" transform="translate(0,0)"/>
<path d="" fill="#9494BC" transform="translate(0,0)"/>
<path d="" fill="#CC8786" transform="translate(0,0)"/>
<path d="" fill="#C1848B" transform="translate(0,0)"/>
<path d="" fill="#C68585" transform="translate(0,0)"/>
<path d="" fill="#A4CE55" transform="translate(0,0)"/>
<path d="" fill="#CE9077" transform="translate(0,0)"/>
<path d="" fill="#C88C89" transform="translate(0,0)"/>
<path d="" fill="#9494B9" transform="translate(0,0)"/>
<path d="" fill="#92A4BB" transform="translate(0,0)"/>
<path d="" fill="#BD818F" transform="translate(0,0)"/>
<path d="" fill="#998AB4" transform="translate(0,0)"/>
<path d="" fill="#CB8F78" transform="translate(0,0)"/>
<path d="" fill="#C28989" transform="translate(0,0)"/>
<path d="" fill="#CC8F7F" transform="translate(0,0)"/>
<path d="" fill="#A6D152" transform="translate(0,0)"/>
<path d="" fill="#C28A87" transform="translate(0,0)"/>
<path d="" fill="#939FB5" transform="translate(0,0)"/>
<path d="" fill="#968CB8" transform="translate(0,0)"/>
<path d="" fill="#91A0B6" transform="translate(0,0)"/>
<path d="" fill="#BA8D8C" transform="translate(0,0)"/>
<path d="" fill="#BE898E" transform="translate(0,0)"/>
<path d="" fill="#CF9875" transform="translate(0,0)"/>
<path d="" fill="#9793B8" transform="translate(0,0)"/>
<path d="" fill="#C49381" transform="translate(0,0)"/>
<path d="" fill="#C19386" transform="translate(0,0)"/>
<path d="" fill="#919CB5" transform="translate(0,0)"/>
<path d="" fill="#9593B8" transform="translate(0,0)"/>
<path d="" fill="#979EB4" transform="translate(0,0)"/>
<path d="" fill="#A5CF53" transform="translate(0,0)"/>
<path d="" fill="#9A93B2" transform="translate(0,0)"/>
<path d="" fill="#9894B2" transform="translate(0,0)"/>
<path d="" fill="#9B91B0" transform="translate(0,0)"/>
<path d="" fill="#9B8EB1" transform="translate(0,0)"/>
<path d="" fill="#A187AB" transform="translate(0,0)"/>
<path d="" fill="#A088AD" transform="translate(0,0)"/>
<path d="" fill="#969FA8" transform="translate(0,0)"/>
<path d="" fill="#9BA0A4" transform="translate(0,0)"/>
<path d="" fill="#9F88AD" transform="translate(0,0)"/>
<path d="" fill="#A6CE54" transform="translate(0,0)"/>
<path d="" fill="#A293A6" transform="translate(0,0)"/>
<path d="" fill="#968CB3" transform="translate(0,0)"/>
<path d="" fill="#A3A19A" transform="translate(0,0)"/>
<path d="" fill="#A591A5" transform="translate(0,0)"/>
<path d="" fill="#A3A68F" transform="translate(0,0)"/>
<path d="" fill="#9C8AB7" transform="translate(0,0)"/>
<path d="" fill="#A39D99" transform="translate(0,0)"/>
<path d="" fill="#978FB4" transform="translate(0,0)"/>
<path d="" fill="#A3D052" transform="translate(0,0)"/>
<path d="" fill="#9592B3" transform="translate(0,0)"/>
<path d="" fill="#A9A48D" transform="translate(0,0)"/>
<path d="" fill="#9592B4" transform="translate(0,0)"/>
<path d="" fill="#9493B6" transform="translate(0,0)"/>
<path d="" fill="#A9AC81" transform="translate(0,0)"/>
<path d="" fill="#9792B4" transform="translate(0,0)"/>
<path d="" fill="#A3CC52" transform="translate(0,0)"/>
<path d="" fill="#9395B7" transform="translate(0,0)"/>
<path d="" fill="#9294B4" transform="translate(0,0)"/>
<path d="" fill="#AF978C" transform="translate(0,0)"/>
<path d="" fill="#9499B8" transform="translate(0,0)"/>
<path d="" fill="#A1CC54" transform="translate(0,0)"/>
<path d="" fill="#A4CD54" transform="translate(0,0)"/>
<path d="" fill="#9593B3" transform="translate(0,0)"/>
<path d="" fill="#A89589" transform="translate(0,0)"/>
<path d="" fill="#9890B3" transform="translate(0,0)"/>
<path d="" fill="#A3CE54" transform="translate(0,0)"/>
<path d="" fill="#A4CD54" transform="translate(0,0)"/>
<path d="" fill="#B0978E" transform="translate(0,0)"/>
<path d="" fill="#B29C84" transform="translate(0,0)"/>
<path d="" fill="#A5CC52" transform="translate(0,0)"/>
<path d="" fill="#A2CC53" transform="translate(0,0)"/>
<path d="" fill="#9C95AD" transform="translate(0,0)"/>
<path d="" fill="#A1CB54" transform="translate(0,0)"/>
<path d="" fill="#A1C955" transform="translate(0,0)"/>
<path d="" fill="#ACB074" transform="translate(0,0)"/>
<path d="" fill="#AFB373" transform="translate(0,0)"/>
<path d="" fill="#A0CB55" transform="translate(0,0)"/>
<path d="" fill="#ADAB7B" transform="translate(0,0)"/>
<path d="" fill="#87BEB5" transform="translate(0,0)"/>
<path d="" fill="#AC958D" transform="translate(0,0)"/>
<path d="" fill="#9EC35A" transform="translate(0,0)"/>
<path d="" fill="#A8AF86" transform="translate(0,0)"/>
<path d="" fill="#AEB37C" transform="translate(0,0)"/>
<path d="" fill="#A4A194" transform="translate(0,0)"/>
<path d="" fill="#A6A477" transform="translate(0,0)"/>
<path d="" fill="#B2A77D" transform="translate(0,0)"/>
<path d="" fill="#A1B467" transform="translate(0,0)"/>
<path d="" fill="#B1AA76" transform="translate(0,0)"/>
<path d="" fill="#AF9E7F" transform="translate(0,0)"/>
<path d="" fill="#B08B8C" transform="translate(0,0)"/>
<path d="" fill="#9B659E" transform="translate(0,0)"/>
<path d="" fill="#9E63A5" transform="translate(0,0)"/>
<path d="" fill="#9B66A3" transform="translate(0,0)"/>
<path d="" fill="#A15AA5" transform="translate(0,0)"/>
<path d="" fill="#9F59A1" transform="translate(0,0)"/>
<path d="" fill="#9B61A0" transform="translate(0,0)"/>
<path d="" fill="#9D5EA2" transform="translate(0,0)"/>
<path d="" fill="#9458A0" transform="translate(0,0)"/>
<path d="" fill="#9A59A0" transform="translate(0,0)"/>
</svg>
